<mxfile host="app.diagrams.net" modified="2023-12-11T19:27:13.304Z" agent="Mozilla/5.0 (Windows NT 10.0; Win64; x64) AppleWebKit/537.36 (KHTML, like Gecko) Chrome/120.0.0.0 Safari/537.36" etag="_FysnPoaHXoLJbjwpFG4" version="22.1.7" type="device">
  <diagram id="R2lEEEUBdFMjLlhIrx00" name="Page-1">
    <mxGraphModel dx="2234" dy="1990" grid="1" gridSize="10" guides="1" tooltips="1" connect="1" arrows="1" fold="1" page="0" pageScale="1" pageWidth="1100" pageHeight="850" background="none" math="0" shadow="0" extFonts="Permanent Marker^https://fonts.googleapis.com/css?family=Permanent+Marker">
      <root>
        <mxCell id="0" />
        <mxCell id="1" parent="0" />
        <mxCell id="6RxOzL9BOeaupxkpUc83-1" value="LOCATION" style="whiteSpace=wrap;html=1;align=center;" parent="1" vertex="1">
          <mxGeometry x="-520" y="-520" width="120" height="40" as="geometry" />
        </mxCell>
        <mxCell id="6RxOzL9BOeaupxkpUc83-3" value="PICK_UP_LOCATION" style="shape=rhombus;perimeter=rhombusPerimeter;whiteSpace=wrap;html=1;align=center;" parent="1" vertex="1">
          <mxGeometry x="-340" y="-590" width="160" height="60" as="geometry" />
        </mxCell>
        <mxCell id="6RxOzL9BOeaupxkpUc83-4" value="DROP_OFF_LOCATION" style="shape=rhombus;perimeter=rhombusPerimeter;whiteSpace=wrap;html=1;align=center;fontSize=11;" parent="1" vertex="1">
          <mxGeometry x="-340" y="-470" width="160" height="60" as="geometry" />
        </mxCell>
        <mxCell id="6RxOzL9BOeaupxkpUc83-5" value="Pick_up_time" style="ellipse;whiteSpace=wrap;html=1;align=center;" parent="1" vertex="1">
          <mxGeometry x="-400" y="-640" width="100" height="40" as="geometry" />
        </mxCell>
        <mxCell id="6RxOzL9BOeaupxkpUc83-6" value="Drop_off_time" style="ellipse;whiteSpace=wrap;html=1;align=center;" parent="1" vertex="1">
          <mxGeometry x="-260" y="-400" width="100" height="40" as="geometry" />
        </mxCell>
        <mxCell id="6RxOzL9BOeaupxkpUc83-7" value="" style="endArrow=none;html=1;rounded=0;exitX=1;exitY=1;exitDx=0;exitDy=0;entryX=0.5;entryY=0;entryDx=0;entryDy=0;" parent="1" source="6RxOzL9BOeaupxkpUc83-4" target="6RxOzL9BOeaupxkpUc83-6" edge="1">
          <mxGeometry relative="1" as="geometry">
            <mxPoint x="-110" y="-460" as="sourcePoint" />
            <mxPoint x="50" y="-460" as="targetPoint" />
          </mxGeometry>
        </mxCell>
        <mxCell id="6RxOzL9BOeaupxkpUc83-8" value="" style="endArrow=none;html=1;rounded=0;entryX=0;entryY=0;entryDx=0;entryDy=0;exitX=0.5;exitY=1;exitDx=0;exitDy=0;" parent="1" source="6RxOzL9BOeaupxkpUc83-5" target="6RxOzL9BOeaupxkpUc83-3" edge="1">
          <mxGeometry relative="1" as="geometry">
            <mxPoint x="-540" y="-590" as="sourcePoint" />
            <mxPoint x="-380" y="-590" as="targetPoint" />
          </mxGeometry>
        </mxCell>
        <mxCell id="6RxOzL9BOeaupxkpUc83-9" value="" style="endArrow=none;html=1;rounded=0;exitX=1;exitY=0;exitDx=0;exitDy=0;entryX=0;entryY=0.5;entryDx=0;entryDy=0;" parent="1" source="6RxOzL9BOeaupxkpUc83-1" target="6RxOzL9BOeaupxkpUc83-3" edge="1">
          <mxGeometry relative="1" as="geometry">
            <mxPoint x="-300" y="-510" as="sourcePoint" />
            <mxPoint x="-140" y="-510" as="targetPoint" />
          </mxGeometry>
        </mxCell>
        <mxCell id="6RxOzL9BOeaupxkpUc83-10" value="1" style="resizable=0;html=1;whiteSpace=wrap;align=right;verticalAlign=bottom;" parent="6RxOzL9BOeaupxkpUc83-9" connectable="0" vertex="1">
          <mxGeometry x="1" relative="1" as="geometry" />
        </mxCell>
        <mxCell id="6RxOzL9BOeaupxkpUc83-11" value="" style="endArrow=none;html=1;rounded=0;exitX=1;exitY=1;exitDx=0;exitDy=0;entryX=0;entryY=0.5;entryDx=0;entryDy=0;" parent="1" source="6RxOzL9BOeaupxkpUc83-1" target="6RxOzL9BOeaupxkpUc83-4" edge="1">
          <mxGeometry relative="1" as="geometry">
            <mxPoint x="-300" y="-510" as="sourcePoint" />
            <mxPoint x="-140" y="-510" as="targetPoint" />
          </mxGeometry>
        </mxCell>
        <mxCell id="6RxOzL9BOeaupxkpUc83-12" value="1" style="resizable=0;html=1;whiteSpace=wrap;align=right;verticalAlign=bottom;" parent="6RxOzL9BOeaupxkpUc83-11" connectable="0" vertex="1">
          <mxGeometry x="1" relative="1" as="geometry">
            <mxPoint y="20" as="offset" />
          </mxGeometry>
        </mxCell>
        <mxCell id="6RxOzL9BOeaupxkpUc83-13" value="" style="shape=link;html=1;rounded=0;exitX=0;exitY=0;exitDx=0;exitDy=0;entryX=1;entryY=0.5;entryDx=0;entryDy=0;" parent="1" target="6RxOzL9BOeaupxkpUc83-3" edge="1">
          <mxGeometry relative="1" as="geometry">
            <mxPoint x="-120" y="-520" as="sourcePoint" />
            <mxPoint x="-140" y="-510" as="targetPoint" />
          </mxGeometry>
        </mxCell>
        <mxCell id="6RxOzL9BOeaupxkpUc83-14" value="N" style="resizable=0;html=1;whiteSpace=wrap;align=right;verticalAlign=bottom;" parent="6RxOzL9BOeaupxkpUc83-13" connectable="0" vertex="1">
          <mxGeometry x="1" relative="1" as="geometry">
            <mxPoint x="10" as="offset" />
          </mxGeometry>
        </mxCell>
        <mxCell id="6RxOzL9BOeaupxkpUc83-15" value="" style="shape=link;html=1;rounded=0;entryX=1;entryY=0.5;entryDx=0;entryDy=0;exitX=0;exitY=1;exitDx=0;exitDy=0;" parent="1" target="6RxOzL9BOeaupxkpUc83-4" edge="1">
          <mxGeometry relative="1" as="geometry">
            <mxPoint x="-120" y="-480" as="sourcePoint" />
            <mxPoint x="-140" y="-510" as="targetPoint" />
          </mxGeometry>
        </mxCell>
        <mxCell id="6RxOzL9BOeaupxkpUc83-16" value="N" style="resizable=0;html=1;whiteSpace=wrap;align=right;verticalAlign=bottom;" parent="6RxOzL9BOeaupxkpUc83-15" connectable="0" vertex="1">
          <mxGeometry x="1" relative="1" as="geometry">
            <mxPoint x="10" y="20" as="offset" />
          </mxGeometry>
        </mxCell>
        <mxCell id="6RxOzL9BOeaupxkpUc83-17" value="Address" style="ellipse;whiteSpace=wrap;html=1;align=center;fontStyle=4;" parent="1" vertex="1">
          <mxGeometry x="-510" y="-600" width="100" height="40" as="geometry" />
        </mxCell>
        <mxCell id="6RxOzL9BOeaupxkpUc83-20" value="" style="endArrow=none;html=1;rounded=0;exitX=0.5;exitY=1;exitDx=0;exitDy=0;entryX=0.5;entryY=0;entryDx=0;entryDy=0;" parent="1" source="6RxOzL9BOeaupxkpUc83-17" target="6RxOzL9BOeaupxkpUc83-1" edge="1">
          <mxGeometry relative="1" as="geometry">
            <mxPoint x="-470" y="-550" as="sourcePoint" />
            <mxPoint x="-540" y="-540" as="targetPoint" />
          </mxGeometry>
        </mxCell>
        <mxCell id="6RxOzL9BOeaupxkpUc83-22" value="CAR_RENTAL" style="whiteSpace=wrap;html=1;align=center;" parent="1" vertex="1">
          <mxGeometry x="-120" y="-520" width="120" height="40" as="geometry" />
        </mxCell>
        <mxCell id="6RxOzL9BOeaupxkpUc83-23" value="Rental_code" style="ellipse;whiteSpace=wrap;html=1;align=center;fontStyle=4;" parent="1" vertex="1">
          <mxGeometry x="20" y="-520" width="100" height="40" as="geometry" />
        </mxCell>
        <mxCell id="6RxOzL9BOeaupxkpUc83-24" value="" style="endArrow=none;html=1;rounded=0;entryX=0;entryY=0.5;entryDx=0;entryDy=0;exitX=1;exitY=0.5;exitDx=0;exitDy=0;" parent="1" source="6RxOzL9BOeaupxkpUc83-22" target="6RxOzL9BOeaupxkpUc83-23" edge="1">
          <mxGeometry relative="1" as="geometry">
            <mxPoint x="90" y="-560" as="sourcePoint" />
            <mxPoint x="250" y="-560" as="targetPoint" />
          </mxGeometry>
        </mxCell>
        <mxCell id="6RxOzL9BOeaupxkpUc83-31" value="CAR" style="whiteSpace=wrap;html=1;align=center;" parent="1" vertex="1">
          <mxGeometry x="-120" y="-760" width="120" height="40" as="geometry" />
        </mxCell>
        <mxCell id="6RxOzL9BOeaupxkpUc83-32" value="RENTAL" style="shape=rhombus;perimeter=rhombusPerimeter;whiteSpace=wrap;html=1;align=center;" parent="1" vertex="1">
          <mxGeometry x="-120" y="-650" width="120" height="60" as="geometry" />
        </mxCell>
        <mxCell id="6RxOzL9BOeaupxkpUc83-37" value="Plate_number" style="ellipse;whiteSpace=wrap;html=1;align=center;fontStyle=4;" parent="1" vertex="1">
          <mxGeometry x="-40" y="-870" width="100" height="40" as="geometry" />
        </mxCell>
        <mxCell id="6RxOzL9BOeaupxkpUc83-38" value="" style="endArrow=none;html=1;rounded=0;entryX=0.5;entryY=1;entryDx=0;entryDy=0;exitX=0.75;exitY=0;exitDx=0;exitDy=0;" parent="1" source="6RxOzL9BOeaupxkpUc83-31" target="6RxOzL9BOeaupxkpUc83-37" edge="1">
          <mxGeometry relative="1" as="geometry">
            <mxPoint x="-60" y="-760" as="sourcePoint" />
            <mxPoint x="80" y="-660" as="targetPoint" />
          </mxGeometry>
        </mxCell>
        <mxCell id="6RxOzL9BOeaupxkpUc83-48" value="Price" style="ellipse;whiteSpace=wrap;html=1;align=center;" parent="1" vertex="1">
          <mxGeometry x="40" y="-760" width="100" height="40" as="geometry" />
        </mxCell>
        <mxCell id="6RxOzL9BOeaupxkpUc83-49" value="" style="endArrow=none;html=1;rounded=0;entryX=0;entryY=0.5;entryDx=0;entryDy=0;exitX=1;exitY=0.5;exitDx=0;exitDy=0;" parent="1" source="6RxOzL9BOeaupxkpUc83-31" target="6RxOzL9BOeaupxkpUc83-48" edge="1">
          <mxGeometry relative="1" as="geometry">
            <mxPoint x="-80" y="-650" as="sourcePoint" />
            <mxPoint x="80" y="-650" as="targetPoint" />
          </mxGeometry>
        </mxCell>
        <mxCell id="6RxOzL9BOeaupxkpUc83-50" value="CUSTOMER" style="whiteSpace=wrap;html=1;align=center;" parent="1" vertex="1">
          <mxGeometry x="270" y="-640" width="120" height="40" as="geometry" />
        </mxCell>
        <mxCell id="6RxOzL9BOeaupxkpUc83-55" value="Customer_id" style="ellipse;whiteSpace=wrap;html=1;align=center;fontStyle=4;" parent="1" vertex="1">
          <mxGeometry x="170" y="-720" width="100" height="40" as="geometry" />
        </mxCell>
        <mxCell id="6RxOzL9BOeaupxkpUc83-56" value="Name" style="ellipse;whiteSpace=wrap;html=1;align=center;" parent="1" vertex="1">
          <mxGeometry x="280" y="-750" width="100" height="40" as="geometry" />
        </mxCell>
        <mxCell id="6RxOzL9BOeaupxkpUc83-57" value="Data" style="ellipse;whiteSpace=wrap;html=1;align=center;" parent="1" vertex="1">
          <mxGeometry x="430" y="-640" width="100" height="40" as="geometry" />
        </mxCell>
        <mxCell id="6RxOzL9BOeaupxkpUc83-59" value="" style="endArrow=none;html=1;rounded=0;entryX=1;entryY=0.5;entryDx=0;entryDy=0;exitX=0;exitY=0.5;exitDx=0;exitDy=0;" parent="1" source="6RxOzL9BOeaupxkpUc83-57" target="6RxOzL9BOeaupxkpUc83-50" edge="1">
          <mxGeometry relative="1" as="geometry">
            <mxPoint x="295" y="-665" as="sourcePoint" />
            <mxPoint x="455" y="-665" as="targetPoint" />
          </mxGeometry>
        </mxCell>
        <mxCell id="6RxOzL9BOeaupxkpUc83-60" value="" style="endArrow=none;html=1;rounded=0;entryX=0.5;entryY=1;entryDx=0;entryDy=0;exitX=0;exitY=0.5;exitDx=0;exitDy=0;" parent="1" source="6RxOzL9BOeaupxkpUc83-64" target="6RxOzL9BOeaupxkpUc83-57" edge="1">
          <mxGeometry relative="1" as="geometry">
            <mxPoint x="615" y="-605" as="sourcePoint" />
            <mxPoint x="645" y="-675" as="targetPoint" />
          </mxGeometry>
        </mxCell>
        <mxCell id="6RxOzL9BOeaupxkpUc83-61" value="" style="endArrow=none;html=1;rounded=0;exitX=0;exitY=0.5;exitDx=0;exitDy=0;entryX=1;entryY=0.5;entryDx=0;entryDy=0;" parent="1" source="6RxOzL9BOeaupxkpUc83-63" target="6RxOzL9BOeaupxkpUc83-57" edge="1">
          <mxGeometry relative="1" as="geometry">
            <mxPoint x="685" y="-575" as="sourcePoint" />
            <mxPoint x="525" y="-605" as="targetPoint" />
          </mxGeometry>
        </mxCell>
        <mxCell id="6RxOzL9BOeaupxkpUc83-62" value="" style="endArrow=none;html=1;rounded=0;entryX=0.5;entryY=0;entryDx=0;entryDy=0;exitX=0;exitY=0.5;exitDx=0;exitDy=0;" parent="1" source="6RxOzL9BOeaupxkpUc83-65" target="6RxOzL9BOeaupxkpUc83-57" edge="1">
          <mxGeometry relative="1" as="geometry">
            <mxPoint x="754.9999999999868" y="-595" as="sourcePoint" />
            <mxPoint x="645" y="-675" as="targetPoint" />
          </mxGeometry>
        </mxCell>
        <mxCell id="6RxOzL9BOeaupxkpUc83-63" value="Preferences" style="ellipse;shape=doubleEllipse;margin=3;whiteSpace=wrap;html=1;align=center;" parent="1" vertex="1">
          <mxGeometry x="560" y="-640" width="100" height="40" as="geometry" />
        </mxCell>
        <mxCell id="6RxOzL9BOeaupxkpUc83-64" value="Transportation_history" style="ellipse;shape=doubleEllipse;margin=3;whiteSpace=wrap;html=1;align=center;fontSize=9;" parent="1" vertex="1">
          <mxGeometry x="560" y="-580" width="100" height="40" as="geometry" />
        </mxCell>
        <mxCell id="6RxOzL9BOeaupxkpUc83-65" value="Searches" style="ellipse;shape=doubleEllipse;margin=3;whiteSpace=wrap;html=1;align=center;" parent="1" vertex="1">
          <mxGeometry x="560" y="-700" width="100" height="40" as="geometry" />
        </mxCell>
        <mxCell id="6RxOzL9BOeaupxkpUc83-66" value="" style="endArrow=none;html=1;rounded=0;entryX=0.5;entryY=1;entryDx=0;entryDy=0;exitX=0.5;exitY=0;exitDx=0;exitDy=0;" parent="1" source="6RxOzL9BOeaupxkpUc83-50" target="6RxOzL9BOeaupxkpUc83-56" edge="1">
          <mxGeometry relative="1" as="geometry">
            <mxPoint x="275" y="-625" as="sourcePoint" />
            <mxPoint x="435" y="-625" as="targetPoint" />
          </mxGeometry>
        </mxCell>
        <mxCell id="6RxOzL9BOeaupxkpUc83-67" value="Phone" style="ellipse;whiteSpace=wrap;html=1;align=center;" parent="1" vertex="1">
          <mxGeometry x="390" y="-720" width="100" height="40" as="geometry" />
        </mxCell>
        <mxCell id="6RxOzL9BOeaupxkpUc83-68" value="" style="endArrow=none;html=1;rounded=0;entryX=0.5;entryY=1;entryDx=0;entryDy=0;exitX=1;exitY=0;exitDx=0;exitDy=0;" parent="1" source="6RxOzL9BOeaupxkpUc83-50" target="6RxOzL9BOeaupxkpUc83-67" edge="1">
          <mxGeometry relative="1" as="geometry">
            <mxPoint x="355" y="-735" as="sourcePoint" />
            <mxPoint x="515" y="-735" as="targetPoint" />
          </mxGeometry>
        </mxCell>
        <mxCell id="6RxOzL9BOeaupxkpUc83-74" value="Model" style="ellipse;whiteSpace=wrap;html=1;align=center;" parent="1" vertex="1">
          <mxGeometry x="-260" y="-760" width="100" height="40" as="geometry" />
        </mxCell>
        <mxCell id="6RxOzL9BOeaupxkpUc83-75" value="" style="endArrow=none;html=1;rounded=0;exitX=1;exitY=0.5;exitDx=0;exitDy=0;entryX=0;entryY=0.5;entryDx=0;entryDy=0;" parent="1" source="6RxOzL9BOeaupxkpUc83-74" target="6RxOzL9BOeaupxkpUc83-31" edge="1">
          <mxGeometry relative="1" as="geometry">
            <mxPoint x="-120" y="-580" as="sourcePoint" />
            <mxPoint x="40" y="-580" as="targetPoint" />
          </mxGeometry>
        </mxCell>
        <mxCell id="6RxOzL9BOeaupxkpUc83-76" value="Transmission_type" style="ellipse;whiteSpace=wrap;html=1;align=center;fontSize=11;" parent="1" vertex="1">
          <mxGeometry x="-260" y="-820" width="100" height="40" as="geometry" />
        </mxCell>
        <mxCell id="6RxOzL9BOeaupxkpUc83-77" value="" style="endArrow=none;html=1;rounded=0;exitX=1;exitY=0.5;exitDx=0;exitDy=0;entryX=0;entryY=0;entryDx=0;entryDy=0;" parent="1" source="6RxOzL9BOeaupxkpUc83-76" target="6RxOzL9BOeaupxkpUc83-31" edge="1">
          <mxGeometry relative="1" as="geometry">
            <mxPoint x="-120" y="-775.91" as="sourcePoint" />
            <mxPoint x="40" y="-775.91" as="targetPoint" />
          </mxGeometry>
        </mxCell>
        <mxCell id="6RxOzL9BOeaupxkpUc83-78" value="Fuel_type" style="ellipse;whiteSpace=wrap;html=1;align=center;" parent="1" vertex="1">
          <mxGeometry x="40" y="-820" width="100" height="40" as="geometry" />
        </mxCell>
        <mxCell id="6RxOzL9BOeaupxkpUc83-79" value="" style="endArrow=none;html=1;rounded=0;entryX=0;entryY=0.5;entryDx=0;entryDy=0;exitX=1;exitY=0;exitDx=0;exitDy=0;" parent="1" source="6RxOzL9BOeaupxkpUc83-31" target="6RxOzL9BOeaupxkpUc83-78" edge="1">
          <mxGeometry relative="1" as="geometry">
            <mxPoint x="-120" y="-760" as="sourcePoint" />
            <mxPoint x="40" y="-760" as="targetPoint" />
          </mxGeometry>
        </mxCell>
        <mxCell id="6RxOzL9BOeaupxkpUc83-82" value="Seat_count" style="ellipse;whiteSpace=wrap;html=1;align=center;" parent="1" vertex="1">
          <mxGeometry x="-180" y="-870" width="100" height="40" as="geometry" />
        </mxCell>
        <mxCell id="6RxOzL9BOeaupxkpUc83-83" value="" style="endArrow=none;html=1;rounded=0;exitX=0.5;exitY=1;exitDx=0;exitDy=0;entryX=0.25;entryY=0;entryDx=0;entryDy=0;" parent="1" source="6RxOzL9BOeaupxkpUc83-82" target="6RxOzL9BOeaupxkpUc83-31" edge="1">
          <mxGeometry relative="1" as="geometry">
            <mxPoint x="-100" y="-850" as="sourcePoint" />
            <mxPoint x="60" y="-850" as="targetPoint" />
          </mxGeometry>
        </mxCell>
        <mxCell id="EFQddu91j1WqzmQ2Kcx1-6" value="" style="shape=link;html=1;rounded=0;entryX=1;entryY=0.5;entryDx=0;entryDy=0;exitX=0;exitY=0.5;exitDx=0;exitDy=0;" parent="1" source="6RxOzL9BOeaupxkpUc83-50" target="6RxOzL9BOeaupxkpUc83-32" edge="1">
          <mxGeometry relative="1" as="geometry">
            <mxPoint x="170" y="-680" as="sourcePoint" />
            <mxPoint x="180" y="-620" as="targetPoint" />
          </mxGeometry>
        </mxCell>
        <mxCell id="EFQddu91j1WqzmQ2Kcx1-7" value="1" style="resizable=0;html=1;whiteSpace=wrap;align=right;verticalAlign=bottom;" parent="EFQddu91j1WqzmQ2Kcx1-6" connectable="0" vertex="1">
          <mxGeometry x="1" relative="1" as="geometry" />
        </mxCell>
        <mxCell id="EFQddu91j1WqzmQ2Kcx1-8" value="" style="endArrow=none;html=1;rounded=0;entryX=0.25;entryY=0;entryDx=0;entryDy=0;exitX=0.5;exitY=1;exitDx=0;exitDy=0;" parent="1" source="6RxOzL9BOeaupxkpUc83-55" target="6RxOzL9BOeaupxkpUc83-50" edge="1">
          <mxGeometry relative="1" as="geometry">
            <mxPoint x="120" y="-670" as="sourcePoint" />
            <mxPoint x="280" y="-670" as="targetPoint" />
          </mxGeometry>
        </mxCell>
        <mxCell id="LnnhgR0qBWoeWEHa4Xs5-1" value="" style="shape=link;html=1;rounded=0;exitX=0.5;exitY=1;exitDx=0;exitDy=0;entryX=0.5;entryY=0;entryDx=0;entryDy=0;" edge="1" parent="1" source="6RxOzL9BOeaupxkpUc83-31" target="6RxOzL9BOeaupxkpUc83-32">
          <mxGeometry relative="1" as="geometry">
            <mxPoint y="-670" as="sourcePoint" />
            <mxPoint x="160" y="-670" as="targetPoint" />
          </mxGeometry>
        </mxCell>
        <mxCell id="LnnhgR0qBWoeWEHa4Xs5-2" value="1" style="resizable=0;html=1;whiteSpace=wrap;align=right;verticalAlign=bottom;" connectable="0" vertex="1" parent="LnnhgR0qBWoeWEHa4Xs5-1">
          <mxGeometry x="1" relative="1" as="geometry">
            <mxPoint x="-10" as="offset" />
          </mxGeometry>
        </mxCell>
        <mxCell id="LnnhgR0qBWoeWEHa4Xs5-4" value="" style="endArrow=none;html=1;rounded=0;entryX=0.5;entryY=1;entryDx=0;entryDy=0;exitX=0.5;exitY=0;exitDx=0;exitDy=0;" edge="1" parent="1" source="6RxOzL9BOeaupxkpUc83-22" target="6RxOzL9BOeaupxkpUc83-32">
          <mxGeometry relative="1" as="geometry">
            <mxPoint x="-40" y="-540" as="sourcePoint" />
            <mxPoint x="120" y="-540" as="targetPoint" />
          </mxGeometry>
        </mxCell>
        <mxCell id="LnnhgR0qBWoeWEHa4Xs5-5" value="N" style="resizable=0;html=1;whiteSpace=wrap;align=right;verticalAlign=bottom;" connectable="0" vertex="1" parent="LnnhgR0qBWoeWEHa4Xs5-4">
          <mxGeometry x="1" relative="1" as="geometry">
            <mxPoint x="-10" y="20" as="offset" />
          </mxGeometry>
        </mxCell>
      </root>
    </mxGraphModel>
  </diagram>
</mxfile>
